<?xml version="1.0" encoding="UTF-8"?>
<svg version="1.1" xmlns="http://www.w3.org/2000/svg" width="1030" height="242">
<path d="M0 0 C10 0 10 0 13.5625 3.4375 C14.38427734 4.53384766 14.38427734 4.53384766 15.22265625 5.65234375 C17.13549376 8.17897088 19.22605943 10.29508292 21.5 12.5 C24.89884056 15.85291028 28.0625073 19.31559679 31.16015625 22.9453125 C34.04080344 26.16234099 37.16063705 29.13056038 40.27734375 32.1171875 C42 34 42 34 42 36 C43.1282554 34.8717446 44.25614956 33.74312686 45.3828125 32.61328125 C46.53917449 31.4597124 47.70129744 30.31190691 48.8671875 29.16796875 C52.05972605 26.01890835 55.16619327 22.86243855 58.0625 19.4375 C59.36491881 17.94944909 60.67978342 16.47228341 62 15 C62.5357666 14.40074707 63.0715332 13.80149414 63.62353516 13.18408203 C65.51444295 11.09678169 67.44073573 9.04713023 69.375 7 C69.98738525 6.31607178 70.59977051 5.63214355 71.23071289 4.92749023 C71.84293701 4.29141846 72.45516113 3.65534668 73.0859375 3 C73.6226709 2.4225 74.1594043 1.845 74.71240234 1.25 C77 0 77 0 86 0 C86 29.04 86 58.08 86 88 C81.71 88 77.42 88 73 88 C72.67 67.54 72.34 47.08 72 26 C62.44754024 35.41895501 62.44754024 35.41895501 53.5625 45.21875 C51.29969234 47.79835073 48.85202768 50.17405403 46.3828125 52.5546875 C44.89145515 53.97109777 44.89145515 53.97109777 44 56 C43.34 56 42.68 56 42 56 C40.73046875 54.70703125 40.73046875 54.70703125 39.1875 52.8125 C35.32777792 48.25689512 31.15112133 44.08945803 26.88354492 39.92114258 C23.89333235 36.97740291 21.04829008 33.95893956 18.29492188 30.79101562 C17.67484253 30.07868774 17.05476318 29.36635986 16.41589355 28.63244629 C15.94864868 28.09373901 15.48140381 27.55503174 15 27 C14.9845388 28.12419594 14.9845388 28.12419594 14.96876526 29.27110291 C14.87095475 36.31990454 14.76846424 43.36861874 14.66066074 50.41727352 C14.60539903 54.0414158 14.551974 57.6655661 14.50268555 61.28979492 C14.45508968 64.78467099 14.4027489 68.2794462 14.34705925 71.77420235 C14.31663587 73.76233823 14.29118018 75.75054809 14.26576233 77.73875427 C14.24581711 78.93992386 14.22587189 80.14109344 14.20532227 81.37866211 C14.18977798 82.44233505 14.1742337 83.506008 14.15821838 84.60191345 C14 87 14 87 13 88 C8.71 88 4.42 88 0 88 C0 58.96 0 29.92 0 0 Z " fill="#FDFDFD" transform="translate(163,78)"/>
<path d="M0 0 C10 0 10 0 12.7421875 2.0625 C13.44601562 3.031875 14.14984375 4.00125 14.875 5 C15.48069824 5.8031665 15.48069824 5.8031665 16.09863281 6.62255859 C16.97059201 7.78594446 17.82828238 8.96013489 18.67285156 10.14355469 C20.02044962 12.02860539 21.40534419 13.87965983 22.8046875 15.7265625 C24.81266024 18.37976291 26.80562541 21.04325613 28.7890625 23.71484375 C32.69967815 28.96011155 36.72370059 34.11565178 40.75292969 39.27001953 C45.87189213 45.81977645 50.93077096 52.41000225 56 59 C56.33 39.53 56.66 20.06 57 0 C61.62 0 66.24 0 71 0 C71 29.04 71 58.08 71 88 C60 88 60 88 57.23828125 85.7265625 C56.60277344 84.70304687 55.96726562 83.67953125 55.3125 82.625 C54.5773471 81.5066099 53.84033889 80.38943734 53.1015625 79.2734375 C52.40804687 78.19320312 51.71453125 77.11296875 51 76 C49.75354 74.39740857 48.48356583 72.81274604 47.1875 71.25 C43.78277486 67.03783016 40.54000028 62.72284136 37.3125 58.375 C31.54757482 50.61922928 25.49925499 43.11677709 19.34350586 35.66894531 C17.85074074 33.81458544 16.42832747 31.90443663 15 30 C14.67 49.14 14.34 68.28 14 88 C9.38 88 4.76 88 0 88 C0 58.96 0 29.92 0 0 Z " fill="#FCFCFC" transform="translate(394,78)"/>
<path d="M0 0 C9.4404517 7.80410674 14.77419994 17.98883081 16.46875 30.0625 C17.40985454 43.29933993 12.84341792 54.70569802 4.28125 64.6875 C-4.42718095 73.77455838 -14.91735189 77.98264846 -27.46875 78.5 C-40.30625088 78.30549241 -51.009617 73.09396665 -60.26953125 64.48046875 C-69.16050976 54.91973668 -71.98834657 43.86066095 -71.69140625 31.06640625 C-70.48824448 17.8586641 -64.89492384 7.52909961 -54.83203125 -0.9609375 C-37.82016362 -13.1923902 -16.59868958 -12.39368822 0 0 Z M-51.34375 15.25 C-57.24468774 22.72352268 -59.05162209 30.02181064 -57.953125 39.4375 C-56.35394329 46.81833868 -52.30868619 54.54029487 -46.01171875 58.84375 C-37.40682278 64.18558879 -30.5398553 65.23991314 -20.34375 64.25 C-16.6605104 63.03681172 -13.57791413 61.37106749 -10.34375 59.25 C-9.43625 58.693125 -8.52875 58.13625 -7.59375 57.5625 C-1.51531324 51.31521778 2.15162374 43.59903838 2.96875 34.9375 C2.24113969 26.35169835 -0.59841562 18.7539175 -6.34375 12.25 C-13.96551022 5.87121501 -21.22184566 3.75069901 -31.09375 3.94140625 C-39.46626229 4.73639239 -45.70719604 9.20731879 -51.34375 15.25 Z " fill="#9E8EF3" transform="translate(974.34375,86.75)"/>
<path d="M0 0 C4.29 0 8.58 0 13 0 C13 12.21 13 24.42 13 37 C29.5 37 46 37 63 37 C63 24.79 63 12.58 63 0 C67.62 0 72.24 0 77 0 C77 29.04 77 58.08 77 88 C72.38 88 67.76 88 63 88 C63 75.79 63 63.58 63 51 C46.5 51 30 51 13 51 C13 63.21 13 75.42 13 88 C8.71 88 4.42 88 0 88 C0 58.96 0 29.92 0 0 Z " fill="#FDFDFD" transform="translate(472,78)"/>
<path d="M0 0 C0.96813629 0.00141495 1.93627258 0.0028299 2.93374634 0.00428772 C6.01055049 0.0098626 9.08728053 0.02241048 12.1640625 0.03515625 C14.25650936 0.0401745 16.34895737 0.04473684 18.44140625 0.04882812 C23.55732 0.0598238 28.67317871 0.0770711 33.7890625 0.09765625 C33.7890625 4.71765625 33.7890625 9.33765625 33.7890625 14.09765625 C31.745979 14.1116748 31.745979 14.1116748 29.66162109 14.12597656 C24.59586185 14.16592547 19.53070677 14.23169868 14.46533203 14.30517578 C12.27530697 14.33335685 10.08518073 14.35458559 7.89501953 14.36865234 C4.74198723 14.39012102 1.59016765 14.436793 -1.5625 14.48828125 C-2.53772614 14.48950989 -3.51295227 14.49073853 -4.51773071 14.49200439 C-10.35986196 14.61715229 -13.7526249 15.21604532 -18.2109375 19.09765625 C-19.37436977 21.42452078 -19.40989738 22.94487038 -19.4609375 25.53515625 C-19.48671875 26.31761719 -19.5125 27.10007812 -19.5390625 27.90625 C-19.12493812 30.67200923 -18.31839017 31.31144159 -16.2109375 33.09765625 C-8.55329383 36.79551235 0.33171158 37.3937437 8.63867188 38.55859375 C17.69449708 39.90019748 25.08620178 41.55067602 31.7890625 48.09765625 C36.17721271 54.30159275 36.51376028 60.66950397 35.7890625 68.09765625 C33.96506369 74.46182599 30.56980029 80.74318481 24.83203125 84.31640625 C19.91967412 86.86828008 15.679914 88.22647727 10.11230469 88.21118164 C9.19165222 88.21110611 8.27099976 88.21103058 7.32244873 88.21095276 C6.33690002 88.20579147 5.35135132 88.20063019 4.3359375 88.1953125 C3.32057922 88.19389755 2.30522095 88.1924826 1.25909424 88.19102478 C-1.98094642 88.18543141 -5.22091775 88.1728801 -8.4609375 88.16015625 C-10.65885317 88.15514039 -12.85676992 88.15057764 -15.0546875 88.14648438 C-20.44013084 88.13546415 -25.82552242 88.11820403 -31.2109375 88.09765625 C-31.2109375 83.47765625 -31.2109375 78.85765625 -31.2109375 74.09765625 C-29.8384082 74.07783691 -28.46587891 74.05801758 -27.05175781 74.03759766 C-21.96009964 73.9615328 -16.8687269 73.87281646 -11.77734375 73.78027344 C-9.57362503 73.74198739 -7.36984389 73.70713388 -5.16601562 73.67578125 C-1.99847098 73.63012295 1.16864412 73.57212923 4.3359375 73.51171875 C5.32148621 73.50016754 6.30703491 73.48861633 7.32244873 73.47671509 C8.2431012 73.4568454 9.16375366 73.43697571 10.11230469 73.41650391 C10.9206073 73.40318024 11.72890991 73.38985657 12.56170654 73.37612915 C15.07448488 73.06197161 16.65641716 72.45631476 18.7890625 71.09765625 C20.92069678 67.90020483 21.10881814 66.81007709 21.1640625 63.09765625 C21.20660156 61.79828125 21.20660156 61.79828125 21.25 60.47265625 C20.99457402 57.99283416 20.99457402 57.99283416 19.109375 56.37890625 C13.04745218 53.03158186 5.59836647 52.32436991 -1.1953125 51.3828125 C-2.06478516 51.26164062 -2.93425781 51.14046875 -3.83007812 51.015625 C-5.54052757 50.7845175 -7.2527917 50.56634344 -8.96679688 50.36328125 C-16.67410763 49.34220097 -24.73868595 46.88260789 -30.2109375 41.09765625 C-34.45808437 34.54531453 -35.340726 27.75622252 -34.2109375 20.09765625 C-31.90369256 12.63366572 -27.56091588 7.52968197 -21.2109375 3.09765625 C-14.60782569 -0.36111661 -7.26694235 -0.04026584 0 0 Z " fill="#FCFCFC" transform="translate(666.2109375,77.90234375)"/>
<path d="M0 0 C20.79 0 41.58 0 63 0 C58.50384615 6.74423077 58.50384615 6.74423077 56.0546875 9.54296875 C55.27544922 10.44112305 55.27544922 10.44112305 54.48046875 11.35742188 C53.95066406 11.96134766 53.42085937 12.56527344 52.875 13.1875 C51.8083975 14.40884938 50.74323632 15.63145932 49.6796875 16.85546875 C49.21288574 17.38809326 48.74608398 17.92071777 48.26513672 18.46948242 C46.8007179 20.18780323 46.8007179 20.18780323 45 23 C44.34 23 43.68 23 43 23 C42.566875 23.8971875 42.566875 23.8971875 42.125 24.8125 C41 27 41 27 39 30 C40.2375 30.061875 40.2375 30.061875 41.5 30.125 C47.24254946 31.56063737 51.37628051 34.46043873 54.5859375 39.48046875 C59.24406187 48.59477569 60.56835122 57.68768731 58.38671875 67.859375 C55.85340985 75.04638351 51.2714596 80.58020761 44.62109375 84.34765625 C35.89121069 88.36023841 27.65876131 89.45891884 18.375 86.4375 C10.73333289 83.37867144 4.93422062 78.26317652 1 71 C-0.92566996 65.80069112 -1.19154826 61.45912545 -1 56 C3.29 56 7.58 56 12 56 C12.45375 57.381875 12.9075 58.76375 13.375 60.1875 C13.6534375 61.00734375 13.931875 61.8271875 14.21875 62.671875 C14.80411601 64.41626571 15.34972678 66.17408276 15.875 67.9375 C17.40501923 70.74253526 19.00745614 71.10223684 22 72 C22.66 72.33 23.32 72.66 24 73 C29.78425418 73.53235614 34.20143401 73.5989245 39 70 C39.66 70 40.32 70 41 70 C44.482105 63.53323357 45.81023969 58.18960445 44 51 C42.56300351 47.98795496 41.06566445 45.53283222 38 44 C35.82325217 43.84530633 33.6421652 43.74997894 31.4609375 43.68359375 C30.15898438 43.64169922 28.85703125 43.59980469 27.515625 43.55664062 C26.13541955 43.51682701 24.75521117 43.47711478 23.375 43.4375 C21.98696585 43.39430593 20.59894472 43.35069135 19.2109375 43.30664062 C15.80739744 43.20028 12.40378222 43.09825286 9 43 C12.30117849 38.50016688 15.62827326 34.15130302 19.4375 30.0625 C23.06989982 26.09205959 26.43423467 21.9998159 29.6875 17.71484375 C31 16 31 16 32 15 C21.44 14.67 10.88 14.34 0 14 C0 9.38 0 4.76 0 0 Z " fill="#A387EE" transform="translate(759,77)"/>
<path d="M0 0 C0.74362793 0.01047363 1.48725586 0.02094727 2.25341797 0.03173828 C3.46191406 0.04140625 3.46191406 0.04140625 4.69482422 0.05126953 C5.95746094 0.07640625 5.95746094 0.07640625 7.24560547 0.10205078 C8.51984375 0.11558594 8.51984375 0.11558594 9.81982422 0.12939453 C11.9202043 0.15299431 14.02043991 0.18886595 16.12060547 0.22705078 C5.04554494 15.30211131 5.04554494 15.30211131 0.12060547 20.22705078 C0.91724609 20.54158203 1.71388672 20.85611328 2.53466797 21.18017578 C13.18268107 25.48083314 21.96256987 30.36394994 27.51904297 40.87158203 C31.3558831 50.38204745 31.31998268 59.10614164 27.43701172 68.59033203 C22.58291647 78.31292637 15.66181755 83.61056595 5.68310547 87.60205078 C-3.60487582 89.23152118 -12.78980523 88.80916214 -21.07080078 83.93798828 C-28.88880393 78.38972799 -34.58980808 71.68124204 -36.87939453 62.22705078 C-38.12607481 51.14686174 -36.38887184 42.59016405 -29.62939453 33.72705078 C-28.38712835 32.22063957 -27.13702993 30.72065488 -25.87939453 29.22705078 C-24.68915617 27.72922273 -23.50179321 26.2291065 -22.31689453 24.72705078 C-18.41566243 19.86397645 -14.46287946 15.04353493 -10.50439453 10.22705078 C-9.88491943 9.47230469 -9.26544434 8.71755859 -8.62719727 7.93994141 C-8.04268799 7.2303125 -7.45817871 6.52068359 -6.85595703 5.78955078 C-6.06825928 4.83242187 -6.06825928 4.83242187 -5.26464844 3.85595703 C-2.21281024 0.26733093 -2.21281024 0.26733093 0 0 Z M-18.75439453 42.22705078 C-23.03997475 48.27728168 -23.70616534 52.8473558 -22.87939453 60.22705078 C-20.97124483 66.44658736 -17.6287779 69.95941062 -12.09033203 73.30908203 C-6.70369631 75.54558273 0.04779443 74.8796024 5.49560547 73.16455078 C10.25933855 69.64846208 14.71700997 65.12215187 16.12060547 59.22705078 C16.92546198 52.70016754 15.95354845 47.62855196 12.12060547 42.22705078 C7.75351319 37.51298405 3.18156008 35.19036772 -3.19189453 34.85205078 C-9.57132364 35.02188583 -14.56961746 37.40599182 -18.75439453 42.22705078 Z " fill="#9693F2" transform="translate(865.87939453125,76.77294921875)"/>
<path d="M0 0 C47.94285714 0 47.94285714 0 57.3125 6.1875 C65.30210828 14.54871797 67.37610011 21.03163676 67.28125 32.44921875 C66.68465843 39.98118735 63.31146349 45.68853651 58 51 C49.73171998 57.27970635 42.19829791 58.25180982 32 58 C32 53.38 32 48.76 32 44 C33.69125 43.9175 35.3825 43.835 37.125 43.75 C43.02247791 43.21179829 46.59463618 41.64705109 50.6328125 37.203125 C53.14601969 33.15327112 52.49313632 28.60260567 52 24 C50.03682011 18.87391917 47.98755909 18.32503939 43 15 C33.43 14.67 23.86 14.34 14 14 C14 38.42 14 62.84 14 88 C9.38 88 4.76 88 0 88 C0 58.96 0 29.92 0 0 Z " fill="#FCFCFC" transform="translate(256,78)"/>
<path d="M0 0 C3.3 0 6.6 0 10 0 C10.43699219 1.16063965 10.43699219 1.16063965 10.8828125 2.34472656 C17.69388225 20.48213434 17.69388225 20.48213434 24.8125 38.5 C28.51371045 47.63434601 32.02523015 56.84044696 35.52352905 66.05395508 C36.17281732 67.76352903 36.8232227 69.47267914 37.47476196 71.18139648 C38.39291952 73.59097644 39.30652179 76.00223253 40.21875 78.4140625 C40.49957932 79.14956329 40.78040863 79.88506409 41.06974792 80.64285278 C43 85.77068452 43 85.77068452 43 88 C38.05 88 33.1 88 28 88 C26.29101562 83.1171875 26.29101562 83.1171875 24.58203125 78.234375 C23.4017329 74.98706876 22.09407841 71.80783904 20.75 68.625 C17.36646191 60.57527539 14.28921543 52.41123295 11.1875 44.25 C10.58415399 42.66660203 9.98063946 41.08326825 9.37695312 39.5 C7.91602942 35.66740234 6.45737333 31.83394904 5 28 C3.4151411 32.02023356 1.83223423 36.04123276 0.25 40.0625 C0.00856262 40.67582184 -0.23287476 41.28914368 -0.48162842 41.92105103 C-3.46921406 49.51305502 -6.43604074 57.11257556 -9.3671875 64.7265625 C-9.77777405 65.79211617 -9.77777405 65.79211617 -10.19665527 66.87919617 C-11.53523027 70.35379667 -12.87084454 73.82949189 -14.20214844 77.30688477 C-14.6893483 78.57311977 -15.17664777 79.83931645 -15.6640625 81.10546875 C-16.09154785 82.22074951 -16.5190332 83.33603027 -16.95947266 84.48510742 C-18 87 -18 87 -19 88 C-21.35313555 88.07271741 -23.70833668 88.08370868 -26.0625 88.0625 C-27.99802734 88.04896484 -27.99802734 88.04896484 -29.97265625 88.03515625 C-30.97167969 88.02355469 -31.97070312 88.01195312 -33 88 C-30.80281264 80.18084309 -28.07114008 72.62385776 -25.17578125 65.0390625 C-24.71068649 63.81327484 -24.24559174 62.58748718 -23.7664032 61.32455444 C-22.78432739 58.73686708 -21.79994674 56.15007324 -20.8137207 53.56396484 C-19.57431221 50.31375017 -18.3394481 47.06183388 -17.10614204 43.80929947 C-11.54572386 29.14869162 -5.89436702 14.53000312 0 0 Z " fill="#FCFCFC" transform="translate(113,78)"/>
<path d="M0 0 C3.63 0 7.26 0 11 0 C11.39566162 1.07217773 11.79132324 2.14435547 12.19897461 3.24902344 C20.86754552 26.7212147 29.68604454 50.12767533 38.76538086 73.44433594 C39.11688705 74.34846222 39.46839325 75.2525885 39.83055115 76.18411255 C40.4910338 77.88222368 41.15303918 79.57974357 41.81678772 81.27658081 C44 86.88847046 44 86.88847046 44 88 C39.05 88 34.1 88 29 88 C25.74412133 80.42244605 22.75256859 72.77813073 19.86328125 65.0546875 C19.49524384 64.07171692 19.12720642 63.08874634 18.74801636 62.07598877 C17.20802808 57.95798568 15.6706906 53.83902098 14.1394043 49.71777344 C13.01049596 46.68242737 11.87489269 43.6496559 10.73828125 40.6171875 C10.39243484 39.68083466 10.04658844 38.74448181 9.69026184 37.77975464 C9.36619858 36.91770416 9.04213531 36.05565369 8.70825195 35.16748047 C8.42577103 34.40869598 8.1432901 33.6499115 7.85224915 32.86813354 C7.04633202 30.81310719 7.04633202 30.81310719 5 29 C3.20780983 33.62479733 1.41627747 38.24984912 -0.375 42.875 C-0.64333649 43.56774017 -0.91167297 44.26048035 -1.18814087 44.97421265 C-4.13075586 52.57171888 -7.06931716 60.17071491 -9.98828125 67.77734375 C-10.44477051 68.96666504 -10.90125977 70.15598633 -11.37158203 71.38134766 C-12.2367429 73.63718642 -13.10102652 75.89336186 -13.96435547 78.14990234 C-14.35123535 79.15875488 -14.73811523 80.16760742 -15.13671875 81.20703125 C-15.47405029 82.0885083 -15.81138184 82.96998535 -16.15893555 83.87817383 C-17 86 -17 86 -18 88 C-22.95 88 -27.9 88 -33 88 C-31.11560921 82.13745087 -29.21196437 76.44683261 -26.80859375 70.78125 C-23.19815834 62.2023926 -19.99858939 53.47043883 -16.75 44.75 C-16.08477579 42.96931819 -15.4193283 41.18871977 -14.75366211 39.40820312 C-13.44069463 35.89556851 -12.12879696 32.38253767 -10.81787109 28.86914062 C-8.40722864 22.40982472 -5.98530199 15.9547634 -3.5625 9.5 C-2.85540143 7.61460858 -2.14836162 5.72919512 -1.44140625 3.84375 C-0.72791016 1.94109375 -0.72791016 1.94109375 0 0 Z " fill="#FCFCFC" transform="translate(588,78)"/>
<path d="M0 0 C0.91652344 0.01160156 1.83304687 0.02320312 2.77734375 0.03515625 C3.69644531 0.04417969 4.61554688 0.05320312 5.5625 0.0625 C6.27277344 0.07410156 6.98304688 0.08570312 7.71484375 0.09765625 C8.14716309 1.23380371 8.57948242 2.36995117 9.02490234 3.54052734 C19.1195149 30.08117155 19.1195149 30.08117155 29.27734375 56.59765625 C29.66631836 57.60940918 30.05529297 58.62116211 30.45605469 59.66357422 C32.24703626 64.31439889 34.05010029 68.96002887 35.875 73.59765625 C36.20878662 74.44779297 36.54257324 75.29792969 36.88647461 76.17382812 C37.50001028 77.73366991 38.11647655 79.29236382 38.73657227 80.84960938 C40.71484375 85.87663248 40.71484375 85.87663248 40.71484375 88.09765625 C35.76484375 88.09765625 30.81484375 88.09765625 25.71484375 88.09765625 C25.04839844 86.34066406 24.38195312 84.58367187 23.6953125 82.7734375 C23.25485596 81.61247559 22.81439941 80.45151367 22.3605957 79.25537109 C21.38041499 76.67138294 20.40118979 74.08703527 19.42260742 71.50244141 C17.06734865 65.2841599 14.7073158 59.06792643 12.32017517 52.86180115 C11.29860429 50.20514499 10.28059882 47.54712908 9.2628479 44.88900757 C8.77340367 43.61376378 8.28217793 42.33920227 7.78915405 41.06533813 C7.09974481 39.28356807 6.41690525 37.49926022 5.734375 35.71484375 C5.34354736 34.70019043 4.95271973 33.68553711 4.55004883 32.64013672 C3.71484375 30.09765625 3.71484375 30.09765625 3.71484375 27.09765625 C3.05484375 27.09765625 2.39484375 27.09765625 1.71484375 27.09765625 C1.5381163 27.7107666 1.36138885 28.32387695 1.17930603 28.95556641 C-0.56209069 34.89168708 -2.52735386 40.68904435 -4.71875 46.47265625 C-5.03795914 47.32263184 -5.35716827 48.17260742 -5.68605042 49.04833984 C-6.35596572 50.83033521 -7.0274457 52.61174309 -7.70043945 54.39257812 C-8.71971611 57.08987579 -9.73430605 59.78889876 -10.74804688 62.48828125 C-19.83334569 86.64584569 -19.83334569 86.64584569 -21.28515625 88.09765625 C-23.6382918 88.17037366 -25.99349293 88.18136493 -28.34765625 88.16015625 C-30.28318359 88.14662109 -30.28318359 88.14662109 -32.2578125 88.1328125 C-33.25683594 88.12121094 -34.25585938 88.10960937 -35.28515625 88.09765625 C-34.59242788 84.06929017 -33.41710582 80.37925015 -32.03515625 76.53515625 C-31.638125 75.42011719 -31.24109375 74.30507812 -30.83203125 73.15625 C-29.66745963 70.0205879 -28.38444035 66.94630155 -27.078125 63.8671875 C-23.41037894 55.12643131 -20.15625773 46.22876916 -16.84765625 37.34765625 C-16.19877616 35.6105992 -15.54968868 33.87361961 -14.90039062 32.13671875 C-14.25909636 30.42057973 -13.61782014 28.70443396 -12.9765625 26.98828125 C-12.66506256 26.15470093 -12.35356262 25.32112061 -12.03262329 24.46228027 C-10.51961415 20.4112483 -9.01085741 16.35874078 -7.51123047 12.30273438 C-7.23447983 11.55715271 -6.95772919 10.81157104 -6.67259216 10.043396 C-6.15331446 8.64436325 -5.63616407 7.24453847 -5.12147522 5.84381104 C-2.99532336 0.12800527 -2.99532336 0.12800527 0 0 Z " fill="#FCFCFC" transform="translate(346.28515625,77.90234375)"/>
<path d="M0 0 C1.36067049 0.01005022 2.72134817 0.01917246 4.08203125 0.02734375 C7.38820647 0.0507918 10.6940088 0.08361144 14 0.125 C14.02685938 2.27076637 14.04633088 4.41662645 14.0625 6.5625 C14.07410156 7.75746094 14.08570312 8.95242187 14.09765625 10.18359375 C14 13.125 14 13.125 13 14.125 C10.99499936 14.21039572 8.9872853 14.23317931 6.98046875 14.23046875 C5.72943359 14.24529297 4.47839844 14.26011719 3.18945312 14.27539062 C0.56297408 14.30526984 -2.05837074 14.30558897 -4.68554688 14.29101562 C-14.2563075 14.45190972 -23.04528359 16.11909973 -30.0324707 23.1784668 C-36.18777237 30.75792474 -37.73147618 38.58048375 -37.41796875 48.1640625 C-36.58977327 56.01256917 -33.12886287 62.13639069 -27 67.125 C-20.93448128 71.30770544 -16.63117845 73.22028165 -9.14453125 73.44140625 C-8.15207649 73.4725779 -8.15207649 73.4725779 -7.13957214 73.50437927 C-5.03065148 73.56964727 -2.92160865 73.62865344 -0.8125 73.6875 C0.61915315 73.73070689 2.05079404 73.77432188 3.48242188 73.81835938 C6.98815796 73.92607185 10.49398975 74.02531308 14 74.125 C14 78.745 14 83.365 14 88.125 C9.56212223 88.20656753 5.12577129 88.26578135 0.6875 88.3125 C-0.55580078 88.33763672 -1.79910156 88.36277344 -3.08007812 88.38867188 C-18.10702995 88.50699433 -29.66350088 84.92859364 -40.66796875 74.6171875 C-44.23068346 70.80979724 -46.72943821 66.80100844 -49 62.125 C-49.33902344 61.465 -49.67804687 60.805 -50.02734375 60.125 C-53.86237776 51.0764405 -53.47410792 38.25608794 -50.375 29.0625 C-45.18556176 17.2370902 -37.27873085 8.81682397 -25.65234375 3.1328125 C-17.02548795 -0.1451386 -9.16796033 -0.11673211 0 0 Z " fill="#FCFCFC" transform="translate(59,77.875)"/>
<path d="M0 0 C0.99 0.33 1.98 0.66 3 1 C5.30806778 5.90464404 6.35881714 10.68502113 7.375 16 C9.20298312 24.90189697 12.97669829 31.97540111 20.73046875 37.15625 C28.19217105 41.61099764 35.43557746 41.82225847 44 41 C51.10065963 38.74537685 56.33776577 34.78856409 60.625 28.6875 C61.07875 28.130625 61.5325 27.57375 62 27 C62.99 27 63.98 27 65 27 C65.20625 25.906875 65.4125 24.81375 65.625 23.6875 C67 20 67 20 69.9375 18.0625 C73 17 73 17 76 17 C75.505 19.475 75.505 19.475 75 22 C75.66 22 76.32 22 77 22 C77.83981206 29.55830854 75.46342757 33.96993892 71 40 C63.30384503 49.25691367 52.99610444 54.75040579 41 56 C27.84731226 57.0828518 16.33916509 52.60120981 6.3125 44.3125 C-1.41568458 37.12569438 -4.64619774 30.05352683 -5.10498047 19.61035156 C-5.16844189 17.11420213 -5.1855614 14.62191196 -5.1875 12.125 C-5.20586914 10.84496094 -5.20586914 10.84496094 -5.22460938 9.5390625 C-5.22654297 8.724375 -5.22847656 7.9096875 -5.23046875 7.0703125 C-5.23457764 6.33570801 -5.23868652 5.60110352 -5.24291992 4.84423828 C-5 3 -5 3 -3 1 C-2.01 1.66 -1.02 2.32 0 3 C0 2.01 0 1.02 0 0 Z " fill="#6FA9F4" transform="translate(910,109)"/>
<path d="M0 0 C0.66 1.98 1.32 3.96 2 6 C4.39719432 6.67958603 4.39719432 6.67958603 7 7 C9.2236068 5.0745356 9.2236068 5.0745356 10 2 C12.52845528 3.26422764 12.76422764 4.52845528 14 7 C14.66 7.33 15.32 7.66 16 8 C18.66163119 15.6758009 17.31669303 24.03505465 14.31640625 31.36328125 C9.462311 41.08587559 2.54121208 46.38351517 -7.4375 50.375 C-19.75336091 52.53567735 -19.75336091 52.53567735 -24.16015625 49.5234375 C-24.76730469 49.02070313 -25.37445312 48.51796875 -26 48 C-28.64934822 47.28566879 -28.64934822 47.28566879 -31 47 C-31.625 44.1875 -31.625 44.1875 -32 41 C-31.34 40.01 -30.68 39.02 -30 38 C-28.02880859 37.65942383 -28.02880859 37.65942383 -25.6484375 37.70703125 C-24.37226562 37.7215332 -24.37226562 37.7215332 -23.0703125 37.73632812 C-22.18085937 37.76146484 -21.29140625 37.78660156 -20.375 37.8125 C-19.02921875 37.83280273 -19.02921875 37.83280273 -17.65625 37.85351562 C-15.43690211 37.88893075 -13.21874812 37.93831539 -11 38 C-11 37.34 -11 36.68 -11 36 C-10.113125 35.62875 -9.22625 35.2575 -8.3125 34.875 C-3.8116754 32.32736343 -1.22531408 29.15888671 1.3125 24.6875 C3.01738851 18.02293584 2.45457753 12.72951367 -0.91015625 6.73046875 C-2.17087647 4.72868001 -3.48474949 2.81830061 -5 1 C-2 0 -2 0 0 0 Z " fill="#80A0F5" transform="translate(879,114)"/>
<path d="M0 0 C0.2475 0.639375 0.495 1.27875 0.75 1.9375 C1.81562433 4.18741541 1.81562433 4.18741541 4.125 4.75 C4.74375 4.8325 5.3625 4.915 6 5 C5.08809898 7.95872234 4.48839875 9.63651862 1.96875 11.51171875 C-11.28574604 17.82438221 -23.03575704 18.42768679 -37 14 C-40.03885409 12.89238029 -42.23935926 11.77097708 -45 10 C-46 7.25 -46 7.25 -46 5 C-45.01 4.67 -44.02 4.34 -43 4 C-43 4.66 -43 5.32 -43 6 C-41.68 5.67 -40.36 5.34 -39 5 C-39 4.34 -39 3.68 -39 3 C-33.61014607 1.87189104 -33.61014607 1.87189104 -30.8046875 2.4609375 C-27.13842932 3.16559437 -23.53126424 3.19119904 -19.8125 3.1875 C-19.06162109 3.18741943 -18.31074219 3.18733887 -17.53710938 3.18725586 C-8.14004508 3.47224431 -8.14004508 3.47224431 0 0 Z " fill="#5EAEF7" transform="translate(967,148)"/>
<path d="M0 0 C7.71929232 4.99483621 11.95553866 14.26594091 14 23 C15.61791154 31.15697067 15.73278948 40.90081579 11 48 C11 46.02 11 44.04 11 42 C10.34 42 9.68 42 9 42 C9.33 40.35 9.66 38.7 10 37 C4.6709721 38.26003632 4.6709721 38.26003632 0.80078125 41.7578125 C-0.12040525 43.88680095 -0.12040525 43.88680095 -1 47 C-1.66 47 -2.32 47 -3 47 C-2.67515625 45.93072266 -2.67515625 45.93072266 -2.34375 44.83984375 C0.39880397 35.40596597 0.77600303 28.18827404 -3 19 C-5.51457173 14.54110095 -8.28047259 10.53133703 -12 7 C-9.23723823 7.52268466 -6.6739124 8.10869587 -4 9 C-3.3125 11.0625 -3.3125 11.0625 -3 13 C-2.01 12.01 -1.02 11.02 0 10 C0.33 10.66 0.66 11.32 1 12 C1.66 11.34 2.32 10.68 3 10 C2.61233695 6.41411676 1.41433748 3.30012079 0 0 Z " fill="#9495F3" transform="translate(976,89)"/>
<path d="M0 0 C1.35781651 8.29369005 1.82169318 17.76746023 -3 25 C-3 23.02 -3 21.04 -3 19 C-3.66 19 -4.32 19 -5 19 C-4.67 17.35 -4.34 15.7 -4 14 C-9.3290279 15.26003632 -9.3290279 15.26003632 -13.19921875 18.7578125 C-14.12040525 20.88680095 -14.12040525 20.88680095 -15 24 C-15.66 24 -16.32 24 -17 24 C-16.79503906 23.34515625 -16.59007812 22.6903125 -16.37890625 22.015625 C-14.30798957 15.00027089 -13.36931406 8.29713645 -13 1 C-12.38125 1.18433594 -11.7625 1.36867188 -11.125 1.55859375 C-7.60747772 2.28925555 -3.90881854 0 0 0 Z " fill="#889BF5" transform="translate(990,112)"/>
<path d="M0 0 C0.99 0.33 1.98 0.66 3 1 C5.80602366 6.96280028 6.98405353 13.19028288 8.25390625 19.6328125 C8.96763976 22.85395535 9.89955306 25.89230005 11 29 C10.01 28.67 9.02 28.34 8 28 C6.3125 24.4375 6.3125 24.4375 5 21 C3.35 21.66 1.7 22.32 0 23 C-0.45375 22.525625 -0.9075 22.05125 -1.375 21.5625 C-2.93258204 19.90972192 -2.93258204 19.90972192 -5 19 C-5.05382106 16.37472811 -5.09358313 13.75055287 -5.125 11.125 C-5.14175781 10.37863281 -5.15851562 9.63226563 -5.17578125 8.86328125 C-5.1933959 6.90805539 -5.10320189 4.95257979 -5 3 C-4.34 2.34 -3.68 1.68 -3 1 C-2.01 1.66 -1.02 2.32 0 3 C0 2.01 0 1.02 0 0 Z " fill="#869CF8" transform="translate(910,109)"/>
<path d="M0 0 C2.475 0.495 2.475 0.495 5 1 C5 1.99 5 2.98 5 4 C5.99 3.01 6.98 2.02 8 1 C9.875 1.5625 9.875 1.5625 12 3 C13.5625 6.25 13.5625 6.25 14 10 C12.65291999 12.60890178 11.20231684 13.94784112 9 16 C8.34 16 7.68 16 7 16 C6.67 16.99 6.34 17.98 6 19 C1.25300799 12.88671509 0.1551111 7.67094905 0 0 Z " fill="#75A5F9" transform="translate(905,128)"/>
<path d="M0 0 C0.66 1.98 1.32 3.96 2 6 C4.39719432 6.67958603 4.39719432 6.67958603 7 7 C9.2236068 5.0745356 9.2236068 5.0745356 10 2 C12.52845528 3.26422764 12.76422764 4.52845528 14 7 C14.66 7.33 15.32 7.66 16 8 C17.17600832 11.22477753 17.10299956 14.34803656 17.0625 17.75 C17.05347656 18.73484375 17.04445313 19.7196875 17.03515625 20.734375 C17.02355469 21.48203125 17.01195312 22.2296875 17 23 C16.67 23 16.34 23 16 23 C16 19.7 16 16.4 16 13 C15.34 13 14.68 13 14 13 C13.34 11.35 12.68 9.7 12 8 C11.67 9.32 11.34 10.64 11 12 C10.34 12 9.68 12 9 12 C8.67 12.66 8.34 13.32 8 14 C7.01 14 6.02 14 5 14 C4.67 16.64 4.34 19.28 4 22 C3.67 22 3.34 22 3 22 C2.85304688 20.80503906 2.85304688 20.80503906 2.703125 19.5859375 C1.81937221 13.32348236 1.03129757 8.91314391 -3 4 C-3.66 3.01 -4.32 2.02 -5 1 C-2 0 -2 0 0 0 Z " fill="#829DF1" transform="translate(879,114)"/>
<path d="M0 0 C0.66 0 1.32 0 2 0 C2.66 0.66 3.32 1.32 4 2 C4.66 1.67 5.32 1.34 6 1 C7.67654729 1.27942455 9.34608154 1.60828247 11 2 C11 2.99 11 3.98 11 5 C11.66 4.67 12.32 4.34 13 4 C12.34 7.3 11.68 10.6 11 14 C10.34 14 9.68 14 9 14 C9 12.68 9 11.36 9 10 C8.34 9.67 7.68 9.34 7 9 C6.67 8.01 6.34 7.02 6 6 C5.34 5.67 4.68 5.34 4 5 C4 5.99 4 6.98 4 8 C2.68 8 1.36 8 0 8 C0 15.92 0 23.84 0 32 C-4.35635711 25.46546433 -3.45989571 17.58061431 -3 10 C-2.27468014 6.53786278 -1.2996157 3.28771828 0 0 Z " fill="#8F99E7" transform="translate(906,104)"/>
<path d="M0 0 C2.97 0 5.94 0 9 0 C6.51663721 4.5355862 3.37836758 8.24885362 0 12.125 C-0.53367187 12.74503906 -1.06734375 13.36507812 -1.6171875 14.00390625 C-4.00104457 16.76135286 -6.39892244 19.44400011 -9 22 C-9 19.69 -9 17.38 -9 15 C-7.02 14.34 -5.04 13.68 -3 13 C-3.33 10.69 -3.66 8.38 -4 6 C-3.34 5.67 -2.68 5.34 -2 5 C-2 5.66 -2 6.32 -2 7 C0.1818424 6.19798729 0.1818424 6.19798729 0.6875 4.0625 C1.2113134 1.94249596 1.2113134 1.94249596 0 0 Z " fill="#A18DEA" transform="translate(812,78)"/>
<path d="M0 0 C0 0.99 0 1.98 0 3 C-0.57105469 2.71125 -1.14210938 2.4225 -1.73046875 2.125 C-9.46111372 -1.41462758 -17.40848131 -2.73922238 -25.6875 -0.1640625 C-27.870386 0.79095013 -29.92473803 1.83239881 -32 3 C-33.33101049 3.67129225 -34.66370379 4.3392923 -36 5 C-36 4.01 -36 3.02 -36 2 C-35.01 2 -34.02 2 -33 2 C-33 1.34 -33 0.68 -33 0 C-31.75108386 -0.48198463 -30.50081192 -0.96045677 -29.25 -1.4375 C-28.55390625 -1.70433594 -27.8578125 -1.97117187 -27.140625 -2.24609375 C-17.80713112 -5.53325491 -8.42446311 -5.28593764 0 0 Z " fill="#998EDA" transform="translate(963,93)"/>
<path d="M0 0 C-0.53109375 0.23074219 -1.0621875 0.46148437 -1.609375 0.69921875 C-7.6819992 3.5028208 -11.33563861 6.73875072 -14 13 C-14.45275278 15.81496741 -14.45275278 15.81496741 -14.625 18.75 C-14.69976563 19.73484375 -14.77453125 20.7196875 -14.8515625 21.734375 C-14.90054688 22.48203125 -14.94953125 23.2296875 -15 24 C-17.23465229 20.64802157 -17.27108649 19.42208754 -17.25 15.5 C-17.25515625 14.5409375 -17.2603125 13.581875 -17.265625 12.59375 C-17 10 -17 10 -15 7 C-14.34 7 -13.68 7 -13 7 C-12.690625 6.38125 -12.38125 5.7625 -12.0625 5.125 C-10 1 -10 1 -7.1875 -0.1875 C-4.02095982 -0.9946573 -2.98482205 -0.91292822 0 0 Z " fill="#9192DD" transform="translate(858,113)"/>
<path d="M0 0 C6.5371871 4.2299446 10.54188116 11.742142 13 19 C13 20.32 13 21.64 13 23 C12.01 22.67 11.02 22.34 10 22 C10.33 20.35 10.66 18.7 11 17 C10.34 17 9.68 17 9 17 C9 15.68 9 14.36 9 13 C8.34 12.67 7.68 12.34 7 12 C6.34 11.01 5.68 10.02 5 9 C4.01 9 3.02 9 2 9 C2.04125 8.2575 2.0825 7.515 2.125 6.75 C1.99601866 3.91241048 1.42948778 2.41226062 0 0 Z " fill="#9493DD" transform="translate(976,89)"/>
<path d="M0 0 C9.48742421 -0.47437121 18.71953996 1.16973164 27 6 C25.625 7.5 25.625 7.5 24 9 C23.34 9 22.68 9 22 9 C21.34 7.35 20.68 5.7 20 4 C18.741875 3.87625 17.48375 3.7525 16.1875 3.625 C10.73920821 3.02638195 5.37979246 2.03573574 0 1 C0 0.67 0 0.34 0 0 Z " fill="#9F8DDF" transform="translate(942,77)"/>
<path d="M0 0 C0.7425 1.0828125 0.7425 1.0828125 1.5 2.1875 C6.49323916 7.80489406 10.9515594 10.18049613 18.5 10.8125 C20.3324781 10.89641298 22.16590984 10.96637501 24 11 C24 11.33 24 11.66 24 12 C10.87621697 12.52573018 10.87621697 12.52573018 5 9 C2.24853726 8.74715633 2.24853726 8.74715633 0 9 C0 6.03 0 3.06 0 0 Z " fill="#9297E1" transform="translate(844,140)"/>
<path d="M0 0 C1.32 0.66 2.64 1.32 4 2 C3.02180976 3.31322788 2.0424189 4.62556152 1.0625 5.9375 C0.51722656 6.66839844 -0.02804687 7.39929688 -0.58984375 8.15234375 C-2 10 -2 10 -3 11 C-0.36 11.99 2.28 12.98 5 14 C1.06329512 15.31223496 -1.12488144 14.24296256 -5 13 C-4.25 7.25 -4.25 7.25 -2 5 C-2.33 4.34 -2.66 3.68 -3 3 C-2.34 3 -1.68 3 -1 3 C-0.67 2.01 -0.34 1.02 0 0 Z " fill="#978EDD" transform="translate(869,86)"/>
<path d="M0 0 C0.66 1.98 1.32 3.96 2 6 C2.66 6 3.32 6 4 6 C4 11.28 4 16.56 4 22 C3.67 22 3.34 22 3 22 C2.85304688 20.80503906 2.85304688 20.80503906 2.703125 19.5859375 C1.81937221 13.32348236 1.03129757 8.91314391 -3 4 C-3.66 3.01 -4.32 2.02 -5 1 C-2 0 -2 0 0 0 Z " fill="#859CE1" transform="translate(879,114)"/>
<path d="M0 0 C5.94 0 11.88 0 18 0 C15.03 3.96 15.03 3.96 12 8 C11 6 11 6 11 3 C10.01 3 9.02 3 8 3 C8 2.34 8 1.68 8 1 C5.36 1 2.72 1 0 1 C0 0.67 0 0.34 0 0 Z " fill="#9987D6" transform="translate(864,77)"/>
<path d="M0 0 C0.33 0.99 0.66 1.98 1 3 C-2.59436293 7.14734184 -5.84642612 8.69687401 -11.31640625 9.22265625 C-15.89428491 9.39166301 -15.89428491 9.39166301 -18 9 C-18.66 8.01 -19.32 7.02 -20 6 C-19.19175781 6.03480469 -18.38351562 6.06960937 -17.55078125 6.10546875 C-15.94783203 6.14607422 -15.94783203 6.14607422 -14.3125 6.1875 C-12.72888672 6.23970703 -12.72888672 6.23970703 -11.11328125 6.29296875 C-7.62759828 5.96495592 -5.87545813 4.9186507 -3 3 C-2.34 3 -1.68 3 -1 3 C-0.67 2.01 -0.34 1.02 0 0 Z " fill="#A08ED9" transform="translate(801,144)"/>
<path d="M0 0 C-0.99 0.495 -0.99 0.495 -2 1 C-2 1.66 -2 2.32 -2 3 C-5.07617188 3.29296875 -5.07617188 3.29296875 -8.15234375 3.5859375 C-8.76207031 3.72257812 -9.37179687 3.85921875 -10 4 C-10.33 4.66 -10.66 5.32 -11 6 C-11.99 6.33 -12.98 6.66 -14 7 C-14.66 7.66 -15.32 8.32 -16 9 C-17.32 8.34 -18.64 7.68 -20 7 C-18.06374902 6.01836578 -16.12595461 5.03977546 -14.1875 4.0625 C-13.10855469 3.51722656 -12.02960937 2.97195312 -10.91796875 2.41015625 C-7.03277307 0.53257172 -4.27588751 -0.11556453 0 0 Z " fill="#9D8BDE" transform="translate(941,78)"/>
<path d="M0 0 C1.0625 1.8125 1.0625 1.8125 2 4 C0.96014641 7.11956076 0.32277946 7.84927828 -2 10 C-2.5775 10.70125 -3.155 11.4025 -3.75 12.125 C-6.72658431 14.60548693 -9.20237273 14.70787483 -13 15 C-12.01 14.34 -11.02 13.68 -10 13 C-4.84511446 9.21584539 -2.07007618 6.08845936 0 0 Z " fill="#849EE1" transform="translate(881,136)"/>
<path d="M0 0 C-6.12414468 5.38924732 -13.28189975 5.27952878 -21 5 C-21 4.67 -21 4.34 -21 4 C-19.96875 3.896875 -18.9375 3.79375 -17.875 3.6875 C-14.03308526 3.21115584 -14.03308526 3.21115584 -11.0625 1.4375 C-7.07536362 -0.434013 -4.36646943 -0.22585187 0 0 Z " fill="#9C89D6" transform="translate(804,160)"/>
<path d="M0 0 C2.24499788 4.48999575 2.05694875 5.76987868 1.25 10.5625 C1.06953125 11.69816406 0.8890625 12.83382812 0.703125 14.00390625 C0 17 0 17 -2 20 C-2 18.02 -2 16.04 -2 14 C-2.66 14 -3.32 14 -4 14 C-3.34 12.68 -2.68 11.36 -2 10 C-1.67 10 -1.34 10 -1 10 C-0.67 6.7 -0.34 3.4 0 0 Z " fill="#81A0E7" transform="translate(989,117)"/>
<path d="M0 0 C0.99 0.66 1.98 1.32 3 2 C2.67 2.99 2.34 3.98 2 5 C1.34 5 0.68 5 0 5 C-0.04898438 5.61488281 -0.09796875 6.22976562 -0.1484375 6.86328125 C-0.22320313 7.67152344 -0.29796875 8.47976562 -0.375 9.3125 C-0.44460938 10.11300781 -0.51421875 10.91351563 -0.5859375 11.73828125 C-1 14 -1 14 -3 17 C-3.66 17 -4.32 17 -5 17 C-1.92482916 5.47835991 -1.92482916 5.47835991 0 0 Z " fill="#839FE6" transform="translate(978,119)"/>
<path d="M0 0 C0.33 0 0.66 0 1 0 C1 2.31 1 4.62 1 7 C-1.83967231 7 -4.23735711 6.59732819 -7 6 C-6.34 5.67 -5.68 5.34 -5 5 C-4.34786708 2.97536745 -4.34786708 2.97536745 -4 1 C-3.01 1 -2.02 1 -1 1 C-0.67 0.67 -0.34 0.34 0 0 Z " fill="#83A0FC" transform="translate(988,120)"/>
<path d="M0 0 C2.90802461 2.21928194 4.95312762 3.92969143 7 7 C6.625 9.1875 6.625 9.1875 6 11 C5.67 10.34 5.34 9.68 5 9 C4.01 9 3.02 9 2 9 C2.04125 8.2575 2.0825 7.515 2.125 6.75 C1.99601866 3.91241048 1.42948778 2.41226062 0 0 Z " fill="#9C90E4" transform="translate(976,89)"/>
<path d="M0 0 C2.38564077 0.57584432 4.66682784 1.22227595 7 2 C7 2.66 7 3.32 7 4 C7.66 4.33 8.32 4.66 9 5 C8.67 7.31 8.34 9.62 8 12 C7.7525 11.46375 7.505 10.9275 7.25 10.375 C5.25124749 6.57737023 3.04053995 3.04053995 0 0 Z " fill="#9E8DDC" transform="translate(797,120)"/>
<path d="M0 0 C2.76276177 0.52268466 5.3260876 1.10869587 8 2 C8.33 4.64 8.66 7.28 9 10 C5.7317654 6.85281112 2.8689341 3.50647501 0 0 Z " fill="#9892E2" transform="translate(964,96)"/>
<path d="M0 0 C0 3.51716303 -0.82445585 4.37121748 -3 7 C-0.03 7.495 -0.03 7.495 3 8 C2.01 8.66 1.02 9.32 0 10 C-1.65 9.01 -3.3 8.02 -5 7 C-3.75023244 3.34683329 -3.32901247 2.21934164 0 0 Z " fill="#9C88DC" transform="translate(801,100)"/>
<path d="M0 0 C1.21816406 0.03480469 1.21816406 0.03480469 2.4609375 0.0703125 C3.68683594 0.09738281 3.68683594 0.09738281 4.9375 0.125 C5.87722656 0.15980469 5.87722656 0.15980469 6.8359375 0.1953125 C6.8359375 0.5253125 6.8359375 0.8553125 6.8359375 1.1953125 C2.3809375 1.6903125 2.3809375 1.6903125 -2.1640625 2.1953125 C-2.4940625 3.5153125 -2.8240625 4.8353125 -3.1640625 6.1953125 C-4.1540625 6.1953125 -5.1440625 6.1953125 -6.1640625 6.1953125 C-3.41682632 0.30837783 -3.41682632 0.30837783 0 0 Z " fill="#A493E2" transform="translate(865.1640625,77.8046875)"/>
<path d="M0 0 C1.50560497 2.85410334 2.63216796 5.68124642 3.625 8.75 C3.88539063 9.54921875 4.14578125 10.3484375 4.4140625 11.171875 C4.60742188 11.77515625 4.80078125 12.3784375 5 13 C2 12 2 12 0.25 8.75 C-0.97360642 5.07918075 -1.19463679 3.58391038 0 0 Z " fill="#829DE1" transform="translate(916,125)"/>
<path d="M0 0 C0.33 0.99 0.66 1.98 1 3 C0.01 3.66 -0.98 4.32 -2 5 C-2 6.32 -2 7.64 -2 9 C-3.32 9 -4.64 9 -6 9 C-4.68775452 5.06326356 -3.08089673 2.77280706 0 0 Z " fill="#9D85E1" transform="translate(776,110)"/>
<path d="M0 0 C1.35439668 2.70879335 1.06501451 5.00933268 1 8 C-3.875 3.25 -3.875 3.25 -5 1 C-2 0 -2 0 0 0 Z " fill="#909BE8" transform="translate(879,114)"/>
<path d="M0 0 C2.63249349 2.45699392 4.78137264 4.56568654 6 8 C5.67 8.99 5.34 9.98 5 11 C4.15841464 9.73461631 3.32700252 8.46246221 2.5 7.1875 C1.80390625 6.12595703 1.80390625 6.12595703 1.09375 5.04296875 C0 3 0 3 0 0 Z " fill="#83A8EA" transform="translate(906,136)"/>
<path d="M0 0 C1.32 0.66 2.64 1.32 4 2 C2.68 3.32 1.36 4.64 0 6 C-0.99 5.01 -1.98 4.02 -3 3 C-2.34 3 -1.68 3 -1 3 C-0.67 2.01 -0.34 1.02 0 0 Z " fill="#9D8DE9" transform="translate(869,86)"/>
<path d="M0 0 C0.33 0.99 0.66 1.98 1 3 C-0.9375 5.6875 -0.9375 5.6875 -3 8 C-3.99 7.67 -4.98 7.34 -6 7 C-4.02 4.69 -2.04 2.38 0 0 Z " fill="#9F8AD8" transform="translate(791,92)"/>
<path d="M0 0 C2.4375 0.375 2.4375 0.375 5 1 C5.33 1.66 5.66 2.32 6 3 C3.69 3.33 1.38 3.66 -1 4 C-0.67 2.68 -0.34 1.36 0 0 Z " fill="#8B9CFB" transform="translate(857,160)"/>
<path d="M0 0 C0.66 0 1.32 0 2 0 C2.66 2.97 3.32 5.94 4 9 C0.68987756 5.68987756 0.49648935 4.46840411 0 0 Z " fill="#A18BDA" transform="translate(759,142)"/>
<path d="M0 0 C1.65 0 3.3 0 5 0 C2.25 4.875 2.25 4.875 0 6 C0 4.02 0 2.04 0 0 Z " fill="#A294E2" transform="translate(816,78)"/>
</svg>
