<svg width="1030" height="242" viewBox="0 0 1030 242" fill="none" xmlns="http://www.w3.org/2000/svg">
<path d="M163 78C173 78 173 78 176.562 81.4375C177.384 82.5338 177.384 82.5338 178.223 83.6523C180.135 86.179 182.226 88.2951 184.5 90.5C187.899 93.8529 191.063 97.3156 194.16 100.945C197.041 104.162 200.161 107.131 203.277 110.117C205 112 205 112 205 114C206.128 112.872 207.256 111.743 208.383 110.613C209.539 109.46 210.701 108.312 211.867 107.168C215.06 104.019 218.166 100.862 221.062 97.4375C222.365 95.9494 223.68 94.4723 225 93C225.536 92.4007 226.072 91.8015 226.624 91.1841C228.514 89.0968 230.441 87.0471 232.375 85C232.987 84.3161 233.6 83.6321 234.231 82.9275C234.843 82.2914 235.455 81.6553 236.086 81C236.623 80.4225 237.159 79.845 237.712 79.25C240 78 240 78 249 78C249 107.04 249 136.08 249 166C244.71 166 240.42 166 236 166C235.67 145.54 235.34 125.08 235 104C225.448 113.419 225.448 113.419 216.562 123.219C214.3 125.798 211.852 128.174 209.383 130.555C207.891 131.971 207.891 131.971 207 134C206.34 134 205.68 134 205 134C203.73 132.707 203.73 132.707 202.188 130.812C198.328 126.257 194.151 122.089 189.884 117.921C186.893 114.977 184.048 111.959 181.295 108.791C180.675 108.079 180.055 107.366 179.416 106.632C178.949 106.094 178.481 105.555 178 105C177.985 106.124 177.985 106.124 177.969 107.271C177.871 114.32 177.768 121.369 177.661 128.417C177.605 132.041 177.552 135.666 177.503 139.29C177.455 142.785 177.403 146.279 177.347 149.774C177.317 151.762 177.291 153.751 177.266 155.739C177.246 156.94 177.226 158.141 177.205 159.379C177.19 160.442 177.174 161.506 177.158 162.602C177 165 177 165 176 166C171.71 166 167.42 166 163 166C163 136.96 163 107.92 163 78Z" fill="black"/>
<path d="M394 78C404 78 404 78 406.742 80.0625C407.446 81.0319 408.15 82.0013 408.875 83C409.481 83.8032 409.481 83.8032 410.099 84.6226C410.971 85.7859 411.828 86.9601 412.673 88.1436C414.02 90.0286 415.405 91.8797 416.805 93.7266C418.813 96.3798 420.806 99.0433 422.789 101.715C426.7 106.96 430.724 112.116 434.753 117.27C439.872 123.82 444.931 130.41 450 137C450.33 117.53 450.66 98.06 451 78C455.62 78 460.24 78 465 78C465 107.04 465 136.08 465 166C454 166 454 166 451.238 163.727C450.603 162.703 449.967 161.68 449.312 160.625C448.577 159.507 447.84 158.389 447.102 157.273C446.408 156.193 445.715 155.113 445 154C443.754 152.397 442.484 150.813 441.188 149.25C437.783 145.038 434.54 140.723 431.312 136.375C425.548 128.619 419.499 121.117 413.344 113.669C411.851 111.815 410.428 109.904 409 108C408.67 127.14 408.34 146.28 408 166C403.38 166 398.76 166 394 166C394 136.96 394 107.92 394 78Z" fill="black"/>
<path d="M974.344 86.75C983.784 94.5541 989.118 104.739 990.812 116.812C991.754 130.049 987.187 141.456 978.625 151.437C969.917 160.525 959.426 164.733 946.875 165.25C934.037 165.055 923.334 159.844 914.074 151.23C905.183 141.67 902.355 130.611 902.652 117.816C903.855 104.609 909.449 94.2791 919.512 85.7891C936.524 73.5576 957.745 74.3563 974.344 86.75ZM923 102C917.099 109.474 915.292 116.772 916.391 126.187C917.99 133.568 922.035 141.29 928.332 145.594C936.937 150.936 943.804 151.99 954 151C957.683 149.787 960.766 148.121 964 146C964.907 145.443 965.815 144.886 966.75 144.312C972.828 138.065 976.495 130.349 977.312 121.687C976.585 113.102 973.745 105.504 968 99C960.378 92.6212 953.122 90.5007 943.25 90.6914C934.877 91.4864 928.637 95.9573 923 102Z" fill="#9E8EF3"/>
<path d="M472 78C476.29 78 480.58 78 485 78C485 90.21 485 102.42 485 115C501.5 115 518 115 535 115C535 102.79 535 90.58 535 78C539.62 78 544.24 78 549 78C549 107.04 549 136.08 549 166C544.38 166 539.76 166 535 166C535 153.79 535 141.58 535 129C518.5 129 502 129 485 129C485 141.21 485 153.42 485 166C480.71 166 476.42 166 472 166C472 136.96 472 107.92 472 78Z" fill="black"/>
<path d="M666.211 77.9024C667.179 77.9038 668.147 77.9052 669.145 77.9066C672.222 77.9122 675.298 77.9248 678.375 77.9375C680.467 77.9425 682.56 77.9471 684.652 77.9512C689.768 77.9622 694.884 77.9794 700 78C700 82.62 700 87.24 700 92C697.957 92.014 697.957 92.014 695.873 92.0283C690.807 92.0683 685.742 92.1341 680.676 92.2075C678.486 92.2357 676.296 92.2569 674.106 92.271C670.953 92.2925 667.801 92.3391 664.648 92.3906C663.673 92.3919 662.698 92.3931 661.693 92.3944C655.851 92.5195 652.458 93.1184 648 97C646.837 99.3269 646.801 100.847 646.75 103.438C646.724 104.22 646.698 105.002 646.672 105.809C647.086 108.574 647.893 109.214 650 111C657.658 114.698 666.543 115.296 674.85 116.461C683.905 117.803 691.297 119.453 698 126C702.388 132.204 702.725 138.572 702 146C700.176 152.364 696.781 158.646 691.043 162.219C686.131 164.771 681.891 166.129 676.323 166.114C675.403 166.113 674.482 166.113 673.533 166.113C672.548 166.108 671.562 166.103 670.547 166.098C669.532 166.096 668.516 166.095 667.47 166.093C664.23 166.088 660.99 166.075 657.75 166.063C655.552 166.057 653.354 166.053 651.156 166.049C645.771 166.038 640.385 166.021 635 166C635 161.38 635 156.76 635 152C636.373 151.98 637.745 151.96 639.159 151.94C644.251 151.864 649.342 151.775 654.434 151.683C656.637 151.644 658.841 151.609 661.045 151.578C664.212 151.532 667.38 151.474 670.547 151.414C671.532 151.403 672.518 151.391 673.533 151.379C674.454 151.359 675.375 151.339 676.323 151.319C677.132 151.306 677.94 151.292 678.773 151.278C681.285 150.964 682.867 150.359 685 149C687.132 145.803 687.32 144.712 687.375 141C687.418 139.701 687.418 139.701 687.461 138.375C687.206 135.895 687.206 135.895 685.32 134.281C679.258 130.934 671.809 130.227 665.016 129.285C664.146 129.164 663.277 129.043 662.381 128.918C660.67 128.687 658.958 128.469 657.244 128.266C649.537 127.245 641.472 124.785 636 119C631.753 112.448 630.87 105.659 632 98C634.307 90.536 638.65 85.432 645 81C651.603 77.5412 658.944 77.8621 666.211 77.9024Z" fill="black"/>
<path d="M759 77C779.79 77 800.58 77 822 77C817.504 83.7442 817.504 83.7442 815.055 86.543C814.275 87.4411 814.275 87.4411 813.48 88.3574C812.951 88.9613 812.421 89.5653 811.875 90.1875C810.808 91.4088 809.743 92.6315 808.68 93.8555C808.213 94.3881 807.746 94.9207 807.265 95.4695C805.801 97.1878 805.801 97.1878 804 100C803.34 100 802.68 100 802 100C801.567 100.897 801.567 100.897 801.125 101.812C800 104 800 104 798 107C799.237 107.062 799.237 107.062 800.5 107.125C806.243 108.561 810.376 111.46 813.586 116.48C818.244 125.595 819.568 134.688 817.387 144.859C814.853 152.046 810.271 157.58 803.621 161.348C794.891 165.36 786.659 166.459 777.375 163.438C769.733 160.379 763.934 155.263 760 148C758.074 142.801 757.808 138.459 758 133C762.29 133 766.58 133 771 133C771.454 134.382 771.908 135.764 772.375 137.188C772.653 138.007 772.932 138.827 773.219 139.672C773.804 141.416 774.35 143.174 774.875 144.938C776.405 147.743 778.007 148.102 781 149C781.66 149.33 782.32 149.66 783 150C788.784 150.532 793.201 150.599 798 147C798.66 147 799.32 147 800 147C803.482 140.533 804.81 135.19 803 128C801.563 124.988 800.066 122.533 797 121C794.823 120.845 792.642 120.75 790.461 120.684C789.159 120.642 787.857 120.6 786.516 120.557C785.135 120.517 783.755 120.477 782.375 120.438C780.987 120.394 779.599 120.351 778.211 120.307C774.807 120.2 771.404 120.098 768 120C771.301 115.5 774.628 111.151 778.438 107.062C782.07 103.092 785.434 98.9998 788.688 94.7148C790 93 790 93 791 92C780.44 91.67 769.88 91.34 759 91C759 86.38 759 81.76 759 77Z" fill="#A387EE"/>
<path d="M865.879 76.7729C866.623 76.7834 867.367 76.7939 868.133 76.8047C869.341 76.8144 869.341 76.8144 870.574 76.8242C871.837 76.8494 871.837 76.8494 873.125 76.875C874.399 76.8885 874.399 76.8885 875.699 76.9023C877.8 76.9259 879.9 76.9618 882 77C870.925 92.0751 870.925 92.0751 866 97C866.797 97.3145 867.593 97.6291 868.414 97.9531C879.062 102.254 887.842 107.137 893.398 117.645C897.235 127.155 897.199 135.879 893.316 145.363C888.462 155.086 881.541 160.384 871.562 164.375C862.274 166.004 853.09 165.582 844.809 160.711C836.991 155.163 831.29 148.454 829 139C827.753 127.92 829.49 119.363 836.25 110.5C837.492 108.994 838.742 107.494 840 106C841.19 104.502 842.378 103.002 843.562 101.5C847.464 96.6369 851.416 91.8165 855.375 87C855.994 86.2453 856.614 85.4905 857.252 84.7129C857.837 84.0033 858.421 83.2936 859.023 82.5625C859.811 81.6054 859.811 81.6054 860.615 80.6289C863.667 77.0403 863.667 77.0403 865.879 76.7729ZM847.125 119C842.839 125.05 842.173 129.62 843 137C844.908 143.22 848.251 146.732 853.789 150.082C859.176 152.319 865.927 151.653 871.375 149.938C876.139 146.421 880.596 141.895 882 136C882.805 129.473 881.833 124.402 878 119C873.633 114.286 869.061 111.963 862.687 111.625C856.308 111.795 851.31 114.179 847.125 119Z" fill="#9693F2"/>
<path d="M256 78C303.943 78 303.943 78 313.312 84.1875C321.302 92.5487 323.376 99.0316 323.281 110.449C322.685 117.981 319.311 123.689 314 129C305.732 135.28 298.198 136.252 288 136C288 131.38 288 126.76 288 122C289.691 121.917 291.383 121.835 293.125 121.75C299.022 121.212 302.595 119.647 306.633 115.203C309.146 111.153 308.493 106.603 308 102C306.037 96.8739 303.988 96.325 299 93C289.43 92.67 279.86 92.34 270 92C270 116.42 270 140.84 270 166C265.38 166 260.76 166 256 166C256 136.96 256 107.92 256 78Z" fill="black"/>
<path d="M113 78C116.3 78 119.6 78 123 78C123.437 79.1606 123.437 79.1606 123.883 80.3447C130.694 98.4821 130.694 98.4821 137.812 116.5C141.514 125.634 145.025 134.84 148.524 144.054C149.173 145.764 149.823 147.473 150.475 149.181C151.393 151.591 152.307 154.002 153.219 156.414C153.5 157.15 153.78 157.885 154.07 158.643C156 163.771 156 163.771 156 166C151.05 166 146.1 166 141 166C139.291 161.117 139.291 161.117 137.582 156.234C136.402 152.987 135.094 149.808 133.75 146.625C130.366 138.575 127.289 130.411 124.188 122.25C123.584 120.667 122.981 119.083 122.377 117.5C120.916 113.667 119.457 109.834 118 106C116.415 110.02 114.832 114.041 113.25 118.062C113.009 118.676 112.767 119.289 112.518 119.921C109.531 127.513 106.564 135.113 103.633 142.727C103.222 143.792 103.222 143.792 102.803 144.879C101.465 148.354 100.129 151.829 98.7979 155.307C98.3107 156.573 97.8234 157.839 97.3359 159.105C96.9085 160.221 96.481 161.336 96.0405 162.485C95 165 95 165 94 166C91.6469 166.073 89.2917 166.084 86.9375 166.062C85.002 166.049 85.002 166.049 83.0273 166.035C82.0283 166.024 81.0293 166.012 80 166C82.1972 158.181 84.9289 150.624 87.8242 143.039C88.2893 141.813 88.7544 140.587 89.2336 139.325C90.2157 136.737 91.2001 134.15 92.1863 131.564C93.4257 128.314 94.6606 125.062 95.8939 121.809C101.454 107.149 107.106 92.53 113 78Z" fill="black"/>
<path d="M588 78C591.63 78 595.26 78 599 78C599.396 79.0722 599.791 80.1444 600.199 81.249C608.868 104.721 617.686 128.128 626.765 151.444C627.117 152.348 627.468 153.253 627.831 154.184C628.491 155.882 629.153 157.58 629.817 159.277C632 164.888 632 164.888 632 166C627.05 166 622.1 166 617 166C613.744 158.422 610.753 150.778 607.863 143.055C607.495 142.072 607.127 141.089 606.748 140.076C605.208 135.958 603.671 131.839 602.139 127.718C601.01 124.682 599.875 121.65 598.738 118.617C598.392 117.681 598.047 116.744 597.69 115.78C597.366 114.918 597.042 114.056 596.708 113.167C596.426 112.409 596.143 111.65 595.852 110.868C595.046 108.813 595.046 108.813 593 107C591.208 111.625 589.416 116.25 587.625 120.875C587.357 121.568 587.088 122.26 586.812 122.974C583.869 130.572 580.931 138.171 578.012 145.777C577.555 146.967 577.099 148.156 576.628 149.381C575.763 151.637 574.899 153.893 574.036 156.15C573.649 157.159 573.262 158.168 572.863 159.207C572.526 160.089 572.189 160.97 571.841 161.878C571 164 571 164 570 166C565.05 166 560.1 166 555 166C556.884 160.137 558.788 154.447 561.191 148.781C564.802 140.202 568.001 131.47 571.25 122.75C571.915 120.969 572.581 119.189 573.246 117.408C574.559 113.896 575.871 110.383 577.182 106.869C579.593 100.41 582.015 93.9548 584.438 87.5C585.145 85.6146 585.852 83.7292 586.559 81.8438C587.272 79.9411 587.272 79.9411 588 78Z" fill="black"/>
<path d="M346.285 77.9023C347.202 77.9139 348.118 77.9255 349.062 77.9375C349.982 77.9465 350.901 77.9555 351.848 77.9648C352.558 77.9764 353.268 77.988 354 78C354.432 79.1361 354.865 80.2723 355.31 81.4429C365.405 107.984 365.405 107.984 375.562 134.5C375.951 135.512 376.34 136.524 376.741 137.566C378.532 142.217 380.335 146.862 382.16 151.5C382.494 152.35 382.828 153.2 383.172 154.076C383.785 155.636 384.402 157.195 385.022 158.752C387 163.779 387 163.779 387 166C382.05 166 377.1 166 372 166C371.334 164.243 370.667 162.486 369.98 160.676C369.54 159.515 369.1 158.354 368.646 157.158C367.666 154.574 366.686 151.989 365.708 149.405C363.353 143.187 360.992 136.97 358.605 130.764C357.584 128.107 356.566 125.449 355.548 122.791C355.059 121.516 354.567 120.242 354.074 118.968C353.385 117.186 352.702 115.402 352.02 113.617C351.629 112.603 351.238 111.588 350.835 110.542C350 108 350 108 350 105C349.34 105 348.68 105 348 105C347.823 105.613 347.647 106.226 347.464 106.858C345.723 112.794 343.758 118.591 341.566 124.375C341.247 125.225 340.928 126.075 340.599 126.951C339.929 128.733 339.258 130.514 338.585 132.295C337.565 134.992 336.551 137.691 335.537 140.391C326.452 164.548 326.452 164.548 325 166C322.647 166.073 320.292 166.084 317.938 166.062C316.002 166.049 316.002 166.049 314.027 166.035C313.028 166.024 312.029 166.012 311 166C311.693 161.972 312.868 158.282 314.25 154.438C314.647 153.322 315.044 152.207 315.453 151.059C316.618 147.923 317.901 144.849 319.207 141.77C322.875 133.029 326.129 124.131 329.438 115.25C330.086 113.513 330.735 111.776 331.385 110.039C332.026 108.323 332.667 106.607 333.309 104.891C333.62 104.057 333.932 103.223 334.253 102.365C335.766 98.3136 337.274 94.2611 338.774 90.2051C339.051 89.4595 339.327 88.7139 339.613 87.9457C340.132 86.5467 340.649 85.1469 341.164 83.7462C343.29 78.0303 343.29 78.0303 346.285 77.9023Z" fill="black"/>
<path d="M59 77.875C60.3607 77.8851 61.7213 77.8942 63.082 77.9024C66.3882 77.9258 69.694 77.9586 73 78C73.0268 80.1458 73.0463 82.2916 73.0625 84.4375C73.0741 85.6325 73.0857 86.8274 73.0976 88.0586C73 91 73 91 72 92C69.995 92.0854 67.9873 92.1082 65.9805 92.1055C64.7294 92.1203 63.4784 92.1351 62.1894 92.1504C59.563 92.1803 56.9416 92.1806 54.3144 92.166C44.7437 92.3269 35.9547 93.9941 28.9675 101.053C22.8122 108.633 21.2685 116.455 21.582 126.039C22.4102 133.888 25.8711 140.011 32 145C38.0655 149.183 42.3688 151.095 49.8555 151.316C50.8479 151.348 50.8479 151.348 51.8604 151.379C53.9693 151.445 56.0784 151.504 58.1875 151.563C59.6191 151.606 61.0508 151.649 62.4824 151.693C65.9881 151.801 69.494 151.9 73 152C73 156.62 73 161.24 73 166C68.5621 166.082 64.1258 166.141 59.6875 166.188C58.4442 166.213 57.2009 166.238 55.9199 166.264C40.893 166.382 29.3365 162.804 18.332 152.492C14.7693 148.685 12.2705 144.676 9.99998 140C9.66096 139.34 9.32194 138.68 8.97264 138C5.13761 128.951 5.52588 116.131 8.62498 106.938C13.8144 95.1121 21.7213 86.6918 33.3476 81.0078C41.9745 77.7299 49.832 77.7583 59 77.875Z" fill="black"/>
<path d="M910 109C910.99 109.33 911.98 109.66 913 110C915.308 114.905 916.359 119.685 917.375 125C919.203 133.902 922.977 140.975 930.73 146.156C938.192 150.611 945.436 150.822 954 150C961.101 147.745 966.338 143.789 970.625 137.688C971.079 137.131 971.532 136.574 972 136C972.99 136 973.98 136 975 136C975.206 134.907 975.412 133.814 975.625 132.688C977 129 977 129 979.938 127.062C983 126 983 126 986 126C985.505 128.475 985.505 128.475 985 131C985.66 131 986.32 131 987 131C987.84 138.558 985.463 142.97 981 149C973.304 158.257 962.996 163.75 951 165C937.847 166.083 926.339 161.601 916.312 153.312C908.584 146.126 905.354 139.054 904.895 128.61C904.832 126.114 904.814 123.622 904.812 121.125C904.794 119.845 904.794 119.845 904.775 118.539C904.773 117.724 904.772 116.91 904.77 116.07C904.765 115.336 904.761 114.601 904.757 113.844C905 112 905 112 907 110C907.99 110.66 908.98 111.32 910 112C910 111.01 910 110.02 910 109Z" fill="#6FA9F4"/>
<path d="M879 114C879.66 115.98 880.32 117.96 881 120C883.397 120.68 883.397 120.68 886 121C888.224 119.075 888.224 119.075 889 116C891.528 117.264 891.764 118.528 893 121C893.66 121.33 894.32 121.66 895 122C897.662 129.676 896.317 138.035 893.316 145.363C888.462 155.086 881.541 160.384 871.562 164.375C859.247 166.536 859.247 166.536 854.84 163.523C854.233 163.021 853.626 162.518 853 162C850.351 161.286 850.351 161.286 848 161C847.375 158.188 847.375 158.188 847 155C847.66 154.01 848.32 153.02 849 152C850.971 151.659 850.971 151.659 853.352 151.707C854.628 151.722 854.628 151.722 855.93 151.736C856.819 151.761 857.709 151.787 858.625 151.812C859.971 151.833 859.971 151.833 861.344 151.854C863.563 151.889 865.781 151.938 868 152C868 151.34 868 150.68 868 150C868.887 149.629 869.774 149.257 870.688 148.875C875.188 146.327 877.775 143.159 880.312 138.688C882.017 132.023 881.455 126.73 878.09 120.73C876.829 118.729 875.515 116.818 874 115C877 114 877 114 879 114Z" fill="#80A0F5"/>
<path d="M967 148C967.248 148.639 967.495 149.279 967.75 149.938C968.816 152.187 968.816 152.187 971.125 152.75C971.744 152.833 972.363 152.915 973 153C972.088 155.959 971.488 157.637 968.969 159.512C955.714 165.824 943.964 166.428 930 162C926.961 160.892 924.761 159.771 922 158C921 155.25 921 155.25 921 153C921.99 152.67 922.98 152.34 924 152C924 152.66 924 153.32 924 154C925.32 153.67 926.64 153.34 928 153C928 152.34 928 151.68 928 151C933.39 149.872 933.39 149.872 936.195 150.461C939.862 151.166 943.469 151.191 947.188 151.188C947.938 151.187 948.689 151.187 949.463 151.187C958.86 151.472 958.86 151.472 967 148Z" fill="#5EAEF7"/>
<path d="M976 89C983.719 93.9948 987.956 103.266 990 112C991.618 120.157 991.733 129.901 987 137C987 135.02 987 133.04 987 131C986.34 131 985.68 131 985 131C985.33 129.35 985.66 127.7 986 126C980.671 127.26 980.671 127.26 976.801 130.758C975.88 132.887 975.88 132.887 975 136C974.34 136 973.68 136 973 136C973.325 134.931 973.325 134.931 973.656 133.84C976.399 124.406 976.776 117.188 973 108C970.485 103.541 967.72 99.5313 964 96C966.763 96.5227 969.326 97.1087 972 98C972.688 100.062 972.688 100.062 973 102C973.99 101.01 974.98 100.02 976 99C976.33 99.66 976.66 100.32 977 101C977.66 100.34 978.32 99.68 979 99C978.612 95.4141 977.414 92.3001 976 89Z" fill="#9495F3"/>
<path d="M990 112C991.358 120.294 991.822 129.767 987 137C987 135.02 987 133.04 987 131C986.34 131 985.68 131 985 131C985.33 129.35 985.66 127.7 986 126C980.671 127.26 980.671 127.26 976.801 130.758C975.88 132.887 975.88 132.887 975 136C974.34 136 973.68 136 973 136C973.205 135.345 973.41 134.69 973.621 134.016C975.692 127 976.631 120.297 977 113C977.619 113.184 978.238 113.369 978.875 113.559C982.393 114.289 986.091 112 990 112Z" fill="#889BF5"/>
<path d="M910 109C910.99 109.33 911.98 109.66 913 110C915.806 115.963 916.984 122.19 918.254 128.633C918.968 131.854 919.9 134.892 921 138C920.01 137.67 919.02 137.34 918 137C916.313 133.438 916.313 133.438 915 130C913.35 130.66 911.7 131.32 910 132C909.546 131.526 909.093 131.051 908.625 130.562C907.067 128.91 907.067 128.91 905 128C904.946 125.375 904.906 122.751 904.875 120.125C904.858 119.379 904.842 118.632 904.824 117.863C904.807 115.908 904.897 113.953 905 112C905.66 111.34 906.32 110.68 907 110C907.99 110.66 908.98 111.32 910 112C910 111.01 910 110.02 910 109Z" fill="#869CF8"/>
<path d="M905 128C907.475 128.495 907.475 128.495 910 129C910 129.99 910 130.98 910 132C910.99 131.01 911.98 130.02 913 129C914.875 129.562 914.875 129.562 917 131C918.562 134.25 918.562 134.25 919 138C917.653 140.609 916.202 141.948 914 144C913.34 144 912.68 144 912 144C911.67 144.99 911.34 145.98 911 147C906.253 140.887 905.155 135.671 905 128Z" fill="#75A5F9"/>
<path d="M879 114C879.66 115.98 880.32 117.96 881 120C883.397 120.68 883.397 120.68 886 121C888.224 119.075 888.224 119.075 889 116C891.528 117.264 891.764 118.528 893 121C893.66 121.33 894.32 121.66 895 122C896.176 125.225 896.103 128.348 896.062 131.75C896.053 132.735 896.044 133.72 896.035 134.734C896.024 135.482 896.012 136.23 896 137C895.67 137 895.34 137 895 137C895 133.7 895 130.4 895 127C894.34 127 893.68 127 893 127C892.34 125.35 891.68 123.7 891 122C890.67 123.32 890.34 124.64 890 126C889.34 126 888.68 126 888 126C887.67 126.66 887.34 127.32 887 128C886.01 128 885.02 128 884 128C883.67 130.64 883.34 133.28 883 136C882.67 136 882.34 136 882 136C881.853 134.805 881.853 134.805 881.703 133.586C880.819 127.323 880.031 122.913 876 118C875.34 117.01 874.68 116.02 874 115C877 114 877 114 879 114Z" fill="#829DF1"/>
<path d="M906 104C906.66 104 907.32 104 908 104C908.66 104.66 909.32 105.32 910 106C910.66 105.67 911.32 105.34 912 105C913.677 105.279 915.346 105.608 917 106C917 106.99 917 107.98 917 109C917.66 108.67 918.32 108.34 919 108C918.34 111.3 917.68 114.6 917 118C916.34 118 915.68 118 915 118C915 116.68 915 115.36 915 114C914.34 113.67 913.68 113.34 913 113C912.67 112.01 912.34 111.02 912 110C911.34 109.67 910.68 109.34 910 109C910 109.99 910 110.98 910 112C908.68 112 907.36 112 906 112C906 119.92 906 127.84 906 136C901.644 129.465 902.54 121.581 903 114C903.725 110.538 904.7 107.288 906 104Z" fill="#8F99E7"/>
<path d="M812 78C814.97 78 817.94 78 821 78C818.517 82.5356 815.378 86.2489 812 90.125C811.466 90.745 810.933 91.3651 810.383 92.0039C807.999 94.7614 805.601 97.444 803 100C803 97.69 803 95.38 803 93C804.98 92.34 806.96 91.68 809 91C808.67 88.69 808.34 86.38 808 84C808.66 83.67 809.32 83.34 810 83C810 83.66 810 84.32 810 85C812.182 84.198 812.182 84.198 812.688 82.0625C813.211 79.9425 813.211 79.9425 812 78Z" fill="#A18DEA"/>
<path d="M963 93C963 93.99 963 94.98 963 96C962.429 95.7113 961.858 95.4225 961.27 95.125C953.539 91.5854 945.592 90.2608 937.312 92.8359C935.13 93.791 933.075 94.8324 931 96C929.669 96.6713 928.336 97.3393 927 98C927 97.01 927 96.02 927 95C927.99 95 928.98 95 930 95C930 94.34 930 93.68 930 93C931.249 92.518 932.499 92.0396 933.75 91.5625C934.446 91.2957 935.142 91.0288 935.859 90.7539C945.193 87.4668 954.576 87.7141 963 93Z" fill="#998EDA"/>
<path d="M858 113C857.469 113.231 856.938 113.461 856.391 113.699C850.318 116.503 846.664 119.739 844 126C843.547 128.815 843.547 128.815 843.375 131.75C843.3 132.735 843.225 133.72 843.148 134.734C843.099 135.482 843.05 136.23 843 137C840.765 133.648 840.729 132.422 840.75 128.5C840.745 127.541 840.74 126.582 840.734 125.594C841 123 841 123 843 120C843.66 120 844.32 120 845 120C845.309 119.381 845.619 118.762 845.938 118.125C848 114 848 114 850.812 112.812C853.979 112.005 855.015 112.087 858 113Z" fill="#9192DD"/>
<path d="M976 89C982.537 93.2299 986.542 100.742 989 108C989 109.32 989 110.64 989 112C988.01 111.67 987.02 111.34 986 111C986.33 109.35 986.66 107.7 987 106C986.34 106 985.68 106 985 106C985 104.68 985 103.36 985 102C984.34 101.67 983.68 101.34 983 101C982.34 100.01 981.68 99.02 981 98C980.01 98 979.02 98 978 98C978.041 97.2575 978.082 96.515 978.125 95.75C977.996 92.9124 977.429 91.4123 976 89Z" fill="#9493DD"/>
<path d="M942 77C951.487 76.5256 960.72 78.1697 969 83C967.625 84.5 967.625 84.5 966 86C965.34 86 964.68 86 964 86C963.34 84.35 962.68 82.7 962 81C960.742 80.8763 959.484 80.7525 958.188 80.625C952.739 80.0264 947.38 79.0357 942 78C942 77.67 942 77.34 942 77Z" fill="#9F8DDF"/>
<path d="M844 140C844.743 141.083 844.743 141.083 845.5 142.188C850.493 147.805 854.952 150.18 862.5 150.812C864.332 150.896 866.166 150.966 868 151C868 151.33 868 151.66 868 152C854.876 152.526 854.876 152.526 849 149C846.249 148.747 846.249 148.747 844 149C844 146.03 844 143.06 844 140Z" fill="#9297E1"/>
<path d="M869 86C870.32 86.66 871.64 87.32 873 88C872.022 89.3132 871.042 90.6256 870.062 91.9375C869.517 92.6684 868.972 93.3993 868.41 94.1523C867 96 867 96 866 97C868.64 97.99 871.28 98.98 874 100C870.063 101.312 867.875 100.243 864 99C864.75 93.25 864.75 93.25 867 91C866.67 90.34 866.34 89.68 866 89C866.66 89 867.32 89 868 89C868.33 88.01 868.66 87.02 869 86Z" fill="#978EDD"/>
<path d="M879 114C879.66 115.98 880.32 117.96 881 120C881.66 120 882.32 120 883 120C883 125.28 883 130.56 883 136C882.67 136 882.34 136 882 136C881.853 134.805 881.853 134.805 881.703 133.586C880.819 127.323 880.031 122.913 876 118C875.34 117.01 874.68 116.02 874 115C877 114 877 114 879 114Z" fill="#859CE1"/>
<path d="M864 77C869.94 77 875.88 77 882 77C879.03 80.96 879.03 80.96 876 85C875 83 875 83 875 80C874.01 80 873.02 80 872 80C872 79.34 872 78.68 872 78C869.36 78 866.72 78 864 78C864 77.67 864 77.34 864 77Z" fill="#9987D6"/>
<path d="M801 144C801.33 144.99 801.66 145.98 802 147C798.406 151.147 795.154 152.697 789.684 153.223C785.106 153.392 785.106 153.392 783 153C782.34 152.01 781.68 151.02 781 150C781.808 150.035 782.616 150.07 783.449 150.105C785.052 150.146 785.052 150.146 786.688 150.188C788.271 150.24 788.271 150.24 789.887 150.293C793.372 149.965 795.125 148.919 798 147C798.66 147 799.32 147 800 147C800.33 146.01 800.66 145.02 801 144Z" fill="#A08ED9"/>
<path d="M941 78C940.01 78.495 940.01 78.495 939 79C939 79.66 939 80.32 939 81C935.924 81.2929 935.924 81.2929 932.848 81.5859C932.238 81.7226 931.628 81.8592 931 82C930.67 82.66 930.34 83.32 930 84C929.01 84.33 928.02 84.66 927 85C926.34 85.66 925.68 86.32 925 87C923.68 86.34 922.36 85.68 921 85C922.936 84.0183 924.874 83.0398 926.812 82.0625C927.891 81.5172 928.97 80.9719 930.082 80.4101C933.967 78.5326 936.724 77.8844 941 78Z" fill="#9D8BDE"/>
<path d="M881 136C882.062 137.812 882.062 137.812 883 140C881.96 143.12 881.323 143.849 879 146C878.423 146.701 877.845 147.402 877.25 148.125C874.273 150.605 871.798 150.708 868 151C868.99 150.34 869.98 149.68 871 149C876.155 145.216 878.93 142.088 881 136Z" fill="#849EE1"/>
<path d="M804 160C797.876 165.389 790.718 165.28 783 165C783 164.67 783 164.34 783 164C784.031 163.897 785.062 163.794 786.125 163.687C789.967 163.211 789.967 163.211 792.938 161.437C796.925 159.566 799.634 159.774 804 160Z" fill="#9C89D6"/>
<path d="M989 117C991.245 121.49 991.057 122.77 990.25 127.562C990.07 128.698 989.889 129.834 989.703 131.004C989 134 989 134 987 137C987 135.02 987 133.04 987 131C986.34 131 985.68 131 985 131C985.66 129.68 986.32 128.36 987 127C987.33 127 987.66 127 988 127C988.33 123.7 988.66 120.4 989 117Z" fill="#81A0E7"/>
<path d="M978 119C978.99 119.66 979.98 120.32 981 121C980.67 121.99 980.34 122.98 980 124C979.34 124 978.68 124 978 124C977.951 124.615 977.902 125.23 977.852 125.863C977.777 126.672 977.702 127.48 977.625 128.312C977.555 129.113 977.486 129.914 977.414 130.738C977 133 977 133 975 136C974.34 136 973.68 136 973 136C976.075 124.478 976.075 124.478 978 119Z" fill="#839FE6"/>
<path d="M988 120C988.33 120 988.66 120 989 120C989 122.31 989 124.62 989 127C986.16 127 983.763 126.597 981 126C981.66 125.67 982.32 125.34 983 125C983.652 122.975 983.652 122.975 984 121C984.99 121 985.98 121 987 121C987.33 120.67 987.66 120.34 988 120Z" fill="#83A0FC"/>
<path d="M976 89C978.908 91.2193 980.953 92.9297 983 96C982.625 98.1875 982.625 98.1875 982 100C981.67 99.34 981.34 98.68 981 98C980.01 98 979.02 98 978 98C978.041 97.2575 978.082 96.515 978.125 95.75C977.996 92.9124 977.429 91.4123 976 89Z" fill="#9C90E4"/>
<path d="M797 120C799.386 120.576 801.667 121.222 804 122C804 122.66 804 123.32 804 124C804.66 124.33 805.32 124.66 806 125C805.67 127.31 805.34 129.62 805 132C804.752 131.464 804.505 130.928 804.25 130.375C802.251 126.577 800.041 123.041 797 120Z" fill="#9E8DDC"/>
<path d="M964 96C966.763 96.5227 969.326 97.1087 972 98C972.33 100.64 972.66 103.28 973 106C969.732 102.853 966.869 99.5065 964 96Z" fill="#9892E2"/>
<path d="M801 100C801 103.517 800.176 104.371 798 107C800.97 107.495 800.97 107.495 804 108C803.01 108.66 802.02 109.32 801 110C799.35 109.01 797.7 108.02 796 107C797.25 103.347 797.671 102.219 801 100Z" fill="#9C88DC"/>
<path d="M865.164 77.8047C866.382 77.8395 866.382 77.8395 867.625 77.875C868.851 77.9021 868.851 77.9021 870.102 77.9297C871.041 77.9645 871.041 77.9645 872 78C872 78.33 872 78.66 872 79C867.545 79.495 867.545 79.495 863 80C862.67 81.32 862.34 82.64 862 84C861.01 84 860.02 84 859 84C861.747 78.1131 861.747 78.1131 865.164 77.8047Z" fill="#A493E2"/>
<path d="M916 125C917.506 127.854 918.632 130.681 919.625 133.75C919.885 134.549 920.146 135.348 920.414 136.172C920.607 136.775 920.801 137.378 921 138C918 137 918 137 916.25 133.75C915.026 130.079 914.805 128.584 916 125Z" fill="#829DE1"/>
<path d="M776 110C776.33 110.99 776.66 111.98 777 113C776.01 113.66 775.02 114.32 774 115C774 116.32 774 117.64 774 119C772.68 119 771.36 119 770 119C771.312 115.063 772.919 112.773 776 110Z" fill="#9D85E1"/>
<path d="M879 114C880.354 116.709 880.065 119.009 880 122C875.125 117.25 875.125 117.25 874 115C877 114 877 114 879 114Z" fill="#909BE8"/>
<path d="M906 136C908.632 138.457 910.781 140.566 912 144C911.67 144.99 911.34 145.98 911 147C910.158 145.735 909.327 144.462 908.5 143.188C907.804 142.126 907.804 142.126 907.094 141.043C906 139 906 139 906 136Z" fill="#83A8EA"/>
<path d="M869 86C870.32 86.66 871.64 87.32 873 88C871.68 89.32 870.36 90.64 869 92C868.01 91.01 867.02 90.02 866 89C866.66 89 867.32 89 868 89C868.33 88.01 868.66 87.02 869 86Z" fill="#9D8DE9"/>
<path d="M791 92C791.33 92.99 791.66 93.98 792 95C790.062 97.6875 790.062 97.6875 788 100C787.01 99.67 786.02 99.34 785 99C786.98 96.69 788.96 94.38 791 92Z" fill="#9F8AD8"/>
<path d="M857 160C859.438 160.375 859.438 160.375 862 161C862.33 161.66 862.66 162.32 863 163C860.69 163.33 858.38 163.66 856 164C856.33 162.68 856.66 161.36 857 160Z" fill="#8B9CFB"/>
<path d="M759 142C759.66 142 760.32 142 761 142C761.66 144.97 762.32 147.94 763 151C759.69 147.69 759.496 146.468 759 142Z" fill="#A18BDA"/>
<path d="M816 78C817.65 78 819.3 78 821 78C818.25 82.875 818.25 82.875 816 84C816 82.02 816 80.04 816 78Z" fill="#A294E2"/>
</svg>
